<svg xmlns="http://www.w3.org/2000/svg" viewBox="0 0 100 68.52"><path d="M62.65 16.9H38.11l-4.59 11.85-4.28 11-4.59 11.88H61.9l4.59-11.84 4.28-11 4.59-11.84zm-8.87 22.87H42l4.28-11h11.78z" fill="#6a3389"/><path fill="#e84a26" d="M34.66 11.87L39.26.03H26.55l-4.59 11.85 12.7-.01z"/><path fill="#00a1b1" d="M87.3.01l-4.6 11.85 12.71-.01L100 0 87.3.01z"/><path fill="#ba2b57" d="M60.75 68.49l12.5-.01h.21l4.59-11.85-12.7.01-4.6 11.85z"/><path fill="#22a859" d="M17.3 56.67H4.59L0 68.52h12.7l4.6-11.85z"/><path fill="#e84a26" opacity=".8" d="M44.65.02l-6.54 16.89h-18.1l-4.6 11.85 18.11-.01 12.71-.01 4.59-11.84L57.36.02H44.65z"/><path fill="#00a1b1" opacity=".8" d="M75.36 16.89L81.9 0 69.19.01l-6.54 16.88-4.59 11.85 12.71-.01 18.1-.01 4.59-11.84-18.1.01z"/><path fill="#22a859" opacity=".8" d="M29.24 39.79l-18.11.01-4.59 11.84 18.11-.01-6.55 16.89h12.71l6.55-16.9 4.59-11.84-12.71.01z"/><path fill="#ba2b57" opacity=".8" d="M66.49 39.77H53.78l-4.59 11.85-6.54 16.88 12.71-.01 6.54-16.88L80 51.6l4.59-11.85-18.1.02z"/></svg>