<svg xmlns="http://www.w3.org/2000/svg" viewBox="0 0 104.4 104.4"><path fill="#ff045f" d="M39.15 78.29l13.04 13.06-13.04 13.05L0 65.24l13.05-13.05L26.1 65.24l13.05-13.05 13.04 13.05-13.04 13.05z"/><path fill="#1e18cf" d="M104.4 65.24L65.24 104.4 52.19 91.35l13.05-13.06-13.05-13.05 13.05-13.05 13.05 13.05 13.06-13.05 13.05 13.05z"/><path fill="#ffc100" d="M104.4 39.15L91.35 52.19 78.29 39.15 65.24 52.19 52.19 39.15 65.24 26.1 52.19 13.05 65.24 0l39.16 39.15z"/><path fill="#1e18cf" d="M39.15 26.1l13.04 13.05-13.04 13.04L26.1 39.15 13.05 52.19 0 39.15 39.15 0l13.04 13.05L39.15 26.1z"/></svg>