<svg xmlns="http://www.w3.org/2000/svg" viewBox="0 0 91.8 91.81"><path d="M1.42 42.48l1 .2zm0 0l1 .2zm0 0l1 .2zm0 0l1 .2zm0 0l1 .2zM43.85 14.27a60.48 60.48 0 0 1-1.36 12.83 57.4 57.4 0 0 1-3.82 11.58 57.06 57.06 0 0 1-11.48 3.8 60.7 60.7 0 0 1-12.93 1.38A60.54 60.54 0 0 1 2.4 42.7l-1-.22 1-.21-1 .2a52.8 52.8 0 0 1 41.08-41.1.13.13 0 0 1 0 .06 60.48 60.48 0 0 1 1.37 12.84zM2.37 42.7l-1-.2z" fill="#ffc100"/><path d="M42.48 1.37A61 61 0 0 0 29.6 0 59 59 0 0 0 5.19 5.18 59 59 0 0 0 0 29.59a60.24 60.24 0 0 0 1.38 12.88 52.81 52.81 0 0 1 41.1-41.09z" fill="#ff045f"/><path d="M49.3 1.41c-.06.33-.13.65-.19 1zm0 0c-.06.33-.13.65-.19 1zm0 0c-.06.33-.13.65-.19 1zm0 0c-.06.33-.13.65-.19 1zm0 0c-.06.33-.13.65-.19 1z" fill="#ffc100"/><path d="M77.52 43.86a60.48 60.48 0 0 1-12.83-1.36 57.4 57.4 0 0 1-11.58-3.82 57.17 57.17 0 0 1-3.81-11.49 61.29 61.29 0 0 1-.22-24.8l.21-.95.22 1c-.06-.32-.13-.65-.2-1a52.85 52.85 0 0 1 41.12 41.05h-.06a60.67 60.67 0 0 1-12.85 1.37z" fill="#ffc100"/><path d="M49.09 2.36c.06-.33.13-.65.19-1z" fill="#ffc100"/><path d="M90.44 42.49A61.05 61.05 0 0 0 91.8 29.6a59 59 0 0 0-5.18-24.41A58.85 58.85 0 0 0 62.2 0a61 61 0 0 0-12.89 1.37 52.85 52.85 0 0 1 41.12 41.12z" fill="#1e18cf"/><path d="M90.38 49.32l-1-.19zm0 0l-1-.19zm0 0l-1-.19zm0 0l-1-.19zm0 0l-1-.19zM48 77.53a60.32 60.32 0 0 1 1.36-12.82 57.28 57.28 0 0 1 3.82-11.59 57.91 57.91 0 0 1 11.48-3.8 61.29 61.29 0 0 1 24.8-.22l.95.21-.95.22 1-.2a52.84 52.84 0 0 1-41.1 41.09.13.13 0 0 1 0-.06A60.58 60.58 0 0 1 48 77.53zM89.43 49.11l1 .19z" fill="#ffc100"/><path d="M49.33 90.44a60.86 60.86 0 0 0 12.87 1.37 58.93 58.93 0 0 0 24.41-5.19 58.93 58.93 0 0 0 5.18-24.41 60.31 60.31 0 0 0-1.37-12.88 52.84 52.84 0 0 1-41.1 41.09z" fill="#ff045f"/><path d="M42.5 90.39c.07-.33.14-.66.2-1-.06.37-.13.69-.2 1zm0 0c.07-.33.14-.66.2-1-.06.37-.13.69-.2 1zm0 0c.07-.33.14-.66.2-1-.06.37-.13.69-.2 1zm0 0c.07-.33.14-.66.2-1-.06.37-.13.69-.2 1zm0 0c.07-.33.14-.66.2-1-.06.37-.13.69-.2 1z" fill="#ffc100"/><path d="M14.28 47.94a60.48 60.48 0 0 1 12.83 1.36 56.89 56.89 0 0 1 11.59 3.83 57.06 57.06 0 0 1 3.8 11.48 60.8 60.8 0 0 1 1.38 12.94 60.72 60.72 0 0 1-1.16 11.87c-.08.32-.15.64-.22 1l-.21-1c.06.33.13.66.19 1a52.85 52.85 0 0 1-41.1-41.11h.06a60.58 60.58 0 0 1 12.84-1.37z" fill="#ffc100"/><path d="M42.72 89.44c-.06.33-.13.66-.2 1 .05-.36.12-.68.2-1z" fill="#ffc100"/><path d="M1.37 49.32A60.88 60.88 0 0 0 0 62.2a58.82 58.82 0 0 0 5.19 24.42 59 59 0 0 0 24.41 5.19 60.33 60.33 0 0 0 12.89-1.38A52.85 52.85 0 0 1 1.38 49.31z" fill="#1e18cf"/></svg>