<svg xmlns="http://www.w3.org/2000/svg" viewBox="0 0 70.58 70.58"><g fill-rule="evenodd"><path d="M16.29 54.29c-1.66-1.66.09-6 2.2-6.69a2.25 2.25 0 0 1 1.26 0 .2.2 0 0 1 .14.23v.06c-.78 1-1.29 2.8-.62 3.47s2.42.16 3.47-.62a.18.18 0 0 1 .26 0v.06a2.25 2.25 0 0 1 0 1.26c-.7 2.12-5 3.86-6.68 2.2zm-7-26c.61-2.26 5.23-2.92 6.89-1.44a2.29 2.29 0 0 1 .7 1.15.18.18 0 0 1-.13.23h-.07c-1.3-.15-3.07.29-3.32 1.2s1.07 2.17 2.27 2.69a.18.18 0 0 1 .09.25v.06a2.39 2.39 0 0 1-1.11.61c-2.18.45-5.86-2.42-5.25-4.69zm19-19c2.27-.61 5.14 3.07 4.69 5.25a2.39 2.39 0 0 1-.61 1.11.19.19 0 0 1-.27 0 .21.21 0 0 1 0-.06c-.52-1.2-1.78-2.52-2.69-2.27s-1.34 2-1.2 3.31a.2.2 0 0 1-.17.21h-.07a2.31 2.31 0 0 1-1.08-.65c-1.52-1.66-.89-6.28 1.4-6.89zm13.91 0c2.26.61 2.92 5.23 1.43 6.89a2.31 2.31 0 0 1-1.08.65.18.18 0 0 1-.23-.13.17.17 0 0 1 0-.07c.15-1.3-.29-3.07-1.2-3.32s-2.12 1.13-2.65 2.32a.18.18 0 0 1-.25.09h-.06a2.39 2.39 0 0 1-.61-1.11C37.1 12.4 40 8.72 42.24 9.33zm19 19c.65 2.31-3 5.19-5.2 4.71a2.39 2.39 0 0 1-1.11-.61.19.19 0 0 1 0-.27h.06c1.2-.52 2.52-1.78 2.27-2.69s-2-1.34-3.31-1.2a.2.2 0 0 1-.21-.17.15.15 0 0 1 0-.07 2.31 2.31 0 0 1 .65-1.08c1.66-1.48 6.28-.83 6.89 1.44zm0 13.91c-.61 2.26-5.23 2.92-6.89 1.43a2.31 2.31 0 0 1-.65-1.08.18.18 0 0 1 .13-.23h.07c1.3.15 3.07-.29 3.32-1.2s-1-2.11-2.24-2.64a.18.18 0 0 1-.09-.25.21.21 0 0 1 0-.06 2.39 2.39 0 0 1 1.15-.62c2.18-.45 5.86 2.42 5.25 4.69zm-19 19c-2.2.65-5.1-3-4.65-5.2a2.39 2.39 0 0 1 .61-1.11.19.19 0 0 1 .27 0 .21.21 0 0 1 0 .06c.52 1.2 1.78 2.52 2.69 2.27s1.35-2 1.2-3.31a.2.2 0 0 1 .17-.21h.07a2.31 2.31 0 0 1 1.08.65c1.48 1.66.83 6.28-1.44 6.89zm-13.91 0c-2.29-.61-2.92-5.2-1.44-6.89a2.32 2.32 0 0 1 1.15-.62.18.18 0 0 1 .23.13.17.17 0 0 1 0 .07c-.15 1.3.29 3.07 1.2 3.32s2.17-1.07 2.69-2.27a.18.18 0 0 1 .25-.09h.06A2.26 2.26 0 0 1 33 56c.45 2.18-2.42 5.86-4.69 5.25zm-19-19c-.56-2.2 3.11-5.1 5.3-4.65a2.39 2.39 0 0 1 1.11.61.19.19 0 0 1 0 .27h-.06c-1.2.52-2.52 1.78-2.27 2.69s2 1.35 3.31 1.2a.2.2 0 0 1 .21.17.15.15 0 0 1 0 .07 2.31 2.31 0 0 1-.65 1.08c-1.66 1.48-6.28.83-6.89-1.44zm7-26c1.66-1.66 6 .09 6.69 2.2a2.25 2.25 0 0 1 0 1.26.2.2 0 0 1-.23.14h-.06c-1-.78-2.8-1.29-3.47-.62s-.16 2.42.62 3.47a.18.18 0 0 1-.05.26h-.06a2.25 2.25 0 0 1-1.26 0c-2.12-.7-3.86-5-2.2-6.68zm38 0c1.66 1.66-.09 6-2.2 6.69a2.25 2.25 0 0 1-1.26 0 .2.2 0 0 1-.14-.23v-.06c.78-1 1.29-2.8.62-3.47s-2.42-.16-3.47.62a.18.18 0 0 1-.26-.05v-.06a2.25 2.25 0 0 1 0-1.26c.7-2.12 5-3.86 6.68-2.2zm0 38c-1.66 1.66-6-.09-6.69-2.2a2.25 2.25 0 0 1 0-1.26.2.2 0 0 1 .23-.14h.06c1 .78 2.8 1.29 3.47.62s.16-2.42-.62-3.47a.18.18 0 0 1 0-.26h.06a2.25 2.25 0 0 1 1.26 0c2.12.7 3.86 5 2.2 6.68z" fill="#f7637b"/><path d="M70.58 35.29c0-2.35-4.29-4.17-6.29-3.17a2.42 2.42 0 0 0-1 1.1.19.19 0 0 0 .09.25c1.05.36 2 1.06 2 1.8s-1 1.44-2 1.8a.19.19 0 0 0-.12.24 2.42 2.42 0 0 0 1 1.1c2 1 6.28-.82 6.28-3.17zM4.73 52.93c1.17 2 5.81 1.47 7-.4a2.4 2.4 0 0 0 .35-1.48.19.19 0 0 0-.21-.17c-1.09.22-2.3.1-2.67-.54s.14-1.75.87-2.58a.19.19 0 0 0 0-.27A2.41 2.41 0 0 0 8.58 47c-2.22.13-5 3.85-3.85 5.88zm0-35.29c-1.17 2 1.63 5.76 3.86 5.89a2.45 2.45 0 0 0 1.41-.44.19.19 0 0 0 0-.27c-.73-.84-1.24-1.94-.87-2.58s1.58-.76 2.67-.54a.19.19 0 0 0 .22-.16 2.43 2.43 0 0 0-.27-1.54c-1.22-1.86-5.85-2.43-7-.4zM35.29 0c-2.35 0-4.17 4.29-3.17 6.29a2.42 2.42 0 0 0 1.1 1 .19.19 0 0 0 .25-.09c.36-1 1.06-2 1.8-2s1.44 1 1.8 2a.19.19 0 0 0 .24.12 2.42 2.42 0 0 0 1.1-1c1-2-.82-6.28-3.17-6.28zm30.56 17.64c-1.17-2-5.81-1.47-7 .4a2.4 2.4 0 0 0-.35 1.48.19.19 0 0 0 .21.17c1.09-.22 2.3-.1 2.67.54s-.14 1.75-.87 2.58a.19.19 0 0 0 0 .27 2.41 2.41 0 0 0 1.45.44c2.22-.13 5-3.85 3.85-5.88zm0 35.29C67 50.9 64.21 47.17 62 47a2.41 2.41 0 0 0-1.45.44.19.19 0 0 0 0 .27c.73.84 1.24 1.94.87 2.58s-1.58.76-2.67.54a.19.19 0 0 0-.22.16 2.47 2.47 0 0 0 .35 1.48c1.22 1.86 5.85 2.43 7 .4zM35.29 70.58c2.35 0 4.17-4.29 3.17-6.29a2.42 2.42 0 0 0-1.1-1 .19.19 0 0 0-.25.09c-.36 1.05-1.06 2-1.8 2s-1.44-1-1.8-2a.19.19 0 0 0-.24-.12 2.42 2.42 0 0 0-1.1 1c-1 2 .82 6.28 3.17 6.28zM52.93 4.73c-2-1.17-5.76 1.63-5.89 3.86a2.45 2.45 0 0 0 .44 1.41.19.19 0 0 0 .27 0c.84-.73 1.94-1.24 2.58-.87s.76 1.58.54 2.67a.19.19 0 0 0 .13.2 2.47 2.47 0 0 0 1.48-.35c1.86-1.22 2.43-5.85.4-7zm-35.29 0c-2 1.17-1.47 5.81.4 7a2.45 2.45 0 0 0 1.47.35.19.19 0 0 0 .17-.21c-.22-1.09-.1-2.3.54-2.67s1.75.14 2.58.87a.19.19 0 0 0 .27 0 2.41 2.41 0 0 0 .44-1.45c-.13-2.22-3.85-5-5.88-3.85zM0 35.29c0 2.35 4.29 4.17 6.29 3.17a2.42 2.42 0 0 0 1-1.1.19.19 0 0 0-.09-.25c-1-.36-2-1.06-2-1.8s1-1.44 2-1.8a.19.19 0 0 0 .12-.24 2.42 2.42 0 0 0-1-1.1c-2-1-6.28.82-6.28 3.17zm17.64 30.56c2 1.17 5.76-1.63 5.89-3.86a2.41 2.41 0 0 0-.44-1.45.19.19 0 0 0-.27 0c-.84.73-1.94 1.24-2.58.87s-.76-1.58-.54-2.67a.19.19 0 0 0-.16-.22 2.47 2.47 0 0 0-1.48.35c-1.86 1.22-2.43 5.85-.4 7zm35.29 0c2-1.17 1.47-5.81-.4-7a2.4 2.4 0 0 0-1.48-.35.19.19 0 0 0-.17.21c.22 1.09.1 2.3-.54 2.67s-1.75-.14-2.58-.87a.19.19 0 0 0-.27 0A2.41 2.41 0 0 0 47 62c.13 2.22 3.85 5 5.88 3.85zM17.41 35.29c0 2.35 4.29 4.17 6.29 3.17a2.33 2.33 0 0 0 .93-.91.18.18 0 0 0-.09-.25.16.16 0 0 0-.12 0c-1.29.38-3.9-.82-3.9-2s2.61-2.36 3.89-2a.19.19 0 0 0 .23-.14.22.22 0 0 0 0-.14 2.35 2.35 0 0 0-.94-.91c-2-1-6.28.82-6.28 3.17zm5.23 12.64c1.66 1.66 6-.09 6.69-2.2a2.39 2.39 0 0 0 0-1.3.2.2 0 0 0-.25-.09.2.2 0 0 0-.09.09c-.64 1.18-3.34 2.17-4.16 1.36s.17-3.51 1.35-4.15a.19.19 0 0 0 .1-.25.19.19 0 0 0-.1-.1 2.25 2.25 0 0 0-1.31 0c-2.12.7-3.86 5-2.2 6.68zm0-25.28c-1.66 1.66.09 6 2.2 6.69a2.25 2.25 0 0 0 1.31 0 .2.2 0 0 0 .09-.25.2.2 0 0 0-.09-.09c-1.15-.64-2.15-3.33-1.3-4.15S28.36 25 29 26.2a.19.19 0 0 0 .25.1.19.19 0 0 0 .1-.1 2.25 2.25 0 0 0 0-1.31c-.7-2.12-5-3.86-6.68-2.2zm25.28 0c-1.66-1.66-6 .09-6.69 2.2a2.25 2.25 0 0 0 0 1.31.2.2 0 0 0 .25.09.2.2 0 0 0 .09-.09c.64-1.16 3.34-2.16 4.16-1.36s-.17 3.51-1.35 4.15a.19.19 0 0 0-.1.25.19.19 0 0 0 .1.1 2.25 2.25 0 0 0 1.31 0c2.12-.7 3.86-5 2.2-6.68zm0 25.28c1.66-1.66-.09-6-2.2-6.69a2.39 2.39 0 0 0-1.3 0 .2.2 0 0 0-.09.25.2.2 0 0 0 .09.09c1.18.64 2.17 3.34 1.36 4.16s-3.51-.17-4.15-1.35a.19.19 0 0 0-.25-.1.19.19 0 0 0-.1.1 2.25 2.25 0 0 0 0 1.31c.7 2.12 5 3.86 6.68 2.2zM35.29 17.41c-2.35 0-4.17 4.29-3.17 6.29a2.33 2.33 0 0 0 .91.93.18.18 0 0 0 .25-.09.16.16 0 0 0 0-.12c-.38-1.29.82-3.9 2-3.9s2.36 2.61 2 3.89a.19.19 0 0 0 .14.23.22.22 0 0 0 .14 0 2.35 2.35 0 0 0 .91-.94c1-2-.82-6.28-3.17-6.28zm17.87 17.88c0-2.35-4.29-4.17-6.29-3.17a2.33 2.33 0 0 0-.93.91.18.18 0 0 0 .09.25.16.16 0 0 0 .12 0c1.29-.38 3.9.82 3.9 2s-2.61 2.36-3.89 2a.19.19 0 0 0-.23.14.22.22 0 0 0 0 .14 2.35 2.35 0 0 0 .94.91c2 1 6.28-.82 6.28-3.17zM35.29 53.16c2.35 0 4.17-4.29 3.17-6.29a2.33 2.33 0 0 0-.91-.93.18.18 0 0 0-.25.09.16.16 0 0 0 0 .12c.38 1.29-.82 3.9-2 3.9s-2.36-2.61-2-3.89a.19.19 0 0 0-.14-.23.22.22 0 0 0-.16.07 2.35 2.35 0 0 0-.91.94c-1 2 .82 6.28 3.17 6.28z" fill="#283e59"/></g></svg>