<svg xmlns="http://www.w3.org/2000/svg" viewBox="0 0 96.82 100"><g fill-rule="evenodd"><path d="M36 0a30.9 30.9 0 0 1 31.68 30.1 32.09 32.09 0 0 1-3.46 15L30.77 26.92C19.46 26.75 10 34.79 7 39.07A31 31 0 0 1 36 0z" fill="#fec30d"/><path d="M93.15 68.6a31 31 0 0 1-42 12.75 32.33 32.33 0 0 1-11.4-10.47l32.5-20.17c5.76-9.78 3.44-22 1.2-26.77a31.06 31.06 0 0 1 19.7 44.66z" fill="#df29cd"/><path d="M4.55 84.46a31.88 31.88 0 0 1 10.92-43.74 33.34 33.34 0 0 1 15.26-4.54l.64 39.3C37 85.72 49 90.13 54.35 90.67a31.88 31.88 0 0 1-49.8-6.21z" fill="#330cc4"/></g></svg>