<svg xmlns="http://www.w3.org/2000/svg" viewBox="0 0 109.49 97.03"><path d="M92 47.75v3.77a68.23 68.23 0 0 1-3.17 19.64 37.48 37.48 0 0 1-8 13.9 34.41 34.41 0 0 1-11.26 8 46.72 46.72 0 0 1-15 3.71h-.14c-1.92.16-3.91.25-6 .25H43.7a54.54 54.54 0 0 1-18.84-3 34.91 34.91 0 0 1-13.63-8.82 37.55 37.55 0 0 1-8.39-14.94A73 73 0 0 1 0 48.74a74.16 74.16 0 0 1 2.84-21.68A38.18 38.18 0 0 1 11.23 12a34.92 34.92 0 0 1 13.64-9 52.66 52.66 0 0 1 16.8-3c-1 .37-2.06.76-3 1.2a37.3 37.3 0 0 0-12.25 8.59 40.22 40.22 0 0 0-8.87 15.5 73 73 0 0 0-3.15 21.42v3.17a60.9 60.9 0 0 0 1.21 11.42c.26 1.33.57 2.61.93 3.81a25.13 25.13 0 0 0 4.86 9.32 21.27 21.27 0 0 0 9.18 6.1A32.86 32.86 0 0 0 36.19 82l.45.07h.25a48.45 48.45 0 0 0 6.68.46h6.46a42.31 42.31 0 0 0 4.97-.46 29.41 29.41 0 0 0 8.9-2.61 20.91 20.91 0 0 0 6.65-5.09 26.14 26.14 0 0 0 5.26-10.6 59.78 59.78 0 0 0 1.7-15.19A60.33 60.33 0 0 0 75.8 33.4a26.85 26.85 0 0 0-5.19-10.66A20.54 20.54 0 0 0 64 17.61c-.1-.05-.2-.08-.3-.14h2.11a46.05 46.05 0 0 1 6.45.44h.17l.4.08 1 .17.56.11h.27l.27.06.53.13c.47.12.94.25 1.38.39L77 19c.31.09.6.2.89.3a18.43 18.43 0 0 1 7.9 5.35 24.2 24.2 0 0 1 4.51 9c.24.84.46 1.74.65 2.66a56.68 56.68 0 0 1 1 8.75v1.61c0 .26.05.6.05 1.08z" fill="#1e18cf"/><path d="M109.49 48.29A73.82 73.82 0 0 1 106.65 70a38 38 0 0 1-8.39 15.09 35 35 0 0 1-13.63 9 52.78 52.78 0 0 1-17 3c1.08-.38 2.14-.8 3.16-1.26a37.44 37.44 0 0 0 12.2-8.66 40.29 40.29 0 0 0 8.65-15 71.65 71.65 0 0 0 3.32-20.48v-1-.91-2-1-.74-.94A52.31 52.31 0 0 0 93 31.9a25 25 0 0 0-4.86-9.32 21.28 21.28 0 0 0-9.17-6.09 39.21 39.21 0 0 0-13.13-2h-4.79a46.2 46.2 0 0 0-6.52.44 29.5 29.5 0 0 0-8.9 2.62A20.73 20.73 0 0 0 39 22.66a26.2 26.2 0 0 0-5.26 10.6A59.65 59.65 0 0 0 32 48.44a60.36 60.36 0 0 0 1.68 15.19 26.91 26.91 0 0 0 5.19 10.66 20.76 20.76 0 0 0 6.64 5.13l.29.13h-2.23a35.28 35.28 0 0 1-12-1.83 18.49 18.49 0 0 1-7.89-5.35 24.06 24.06 0 0 1-4.52-9 54.14 54.14 0 0 1-1.79-13.51v-1.55-1.54a70.14 70.14 0 0 1 3-20.55 37.08 37.08 0 0 1 8.2-14.37 34.42 34.42 0 0 1 11.26-7.91 47.38 47.38 0 0 1 15-3.67q3-.27 6.24-.27h4.74a54.54 54.54 0 0 1 18.82 3 35 35 0 0 1 13.64 8.85 33.79 33.79 0 0 1 4.87 6.66 43.13 43.13 0 0 1 3.52 8.27 73.12 73.12 0 0 1 2.83 21.51z" fill="#ffc100"/></svg>